<?xml version="1.0" encoding="utf-8"?>
<!-- Generator: Adobe Illustrator 24.0.1, SVG Export Plug-In . SVG Version: 6.00 Build 0)  -->
<svg version="1.1" id="Camada_1" xmlns="http://www.w3.org/2000/svg" xmlns:xlink="http://www.w3.org/1999/xlink" x="0px" y="0px"
	 viewBox="0 0 299 120" style="enable-background:new 0 0 299 120;" xml:space="preserve">
<style type="text/css">
	.st0{fill-rule:evenodd;clip-rule:evenodd;fill:#020203;}
	.st1{fill:#020203;}
</style>
<g>
	<g>
		<path class="st0" d="M281.17,62.67c0,0,2.16-4.93,3.69-12.11c3.08-13.96-5.44-22.25-19.28-22.25c-15.8,0-26.67,7.49-30.77,26.67
			c-4.11,19.4,3.69,30.36,20.92,30.36c14.78,0,20.73-5.44,20.73-5.44c0.41-4.62-2.16-10.78-4.52-13.65c0,0-4.41,2.46-9.75,2.46
			c-4.72,0-7.18-0.92-6.77-6.06h25.74V62.67z M266.2,48.4c-0.21,1.03-0.41,2.05-0.72,2.98h-8.21c1.95-6.88,4.31-8.93,6.67-8.93
			C266.1,42.45,267.02,44.81,266.2,48.4L266.2,48.4z"/>
		<path class="st0" d="M157.79,35.16l0.31-5.03c0,0-2.16-0.82-9.03-0.82c-6.57,0-10.78,0.82-10.78,0.82L127,83.48
			c0,0,3.8,0.82,10.37,0.82c6.26,0,10.78-0.82,10.78-0.82l6.98-33.34c2.77-2.36,6.67-3.49,8.93-3.49c1.85,0,4.52,0.41,5.75,1.44
			c5.44-4.72,8.93-12.21,9.65-16.73c-2.77-2.05-5.54-2.98-8.62-2.98C167.13,28.4,161.79,29.84,157.79,35.16L157.79,35.16
			L157.79,35.16z"/>
		<path class="st0" d="M113.01,30.05l-1.03,3.69c-2.05-3.9-6.88-5.44-10.98-5.44c-12.52,0-20.73,6.06-25.13,26.97
			c-4.41,20.92,1.74,30.05,13.24,30.05c5.64,0,10.06-2.36,13.55-5.75l-0.1,3.9c0,0,2.87,0.82,9.13,0.82
			c6.16,0,10.26-0.82,10.26-0.82l11.39-53.56c0,0-3.9-0.82-10.26-0.82C116.7,29.12,113.01,30.05,113.01,30.05L113.01,30.05
			L113.01,30.05z M108.39,48.81l-3.59,16.61c-0.82,2.16-2.26,4.11-4.82,4.11c-3.9,0-4.11-2.87-2.16-12.21
			c2.16-10.37,3.59-13.24,7.49-13.24C107.88,44.09,108.49,46.25,108.39,48.81L108.39,48.81L108.39,48.81z"/>
		<path class="st0" d="M231.72,21.6L211,32.56l4.29,1.9l-18.06,39.27l4.89-18.7l-1.33-25.28c0,0-4.34-0.84-10.28-0.84
			c-5.71,0-9.87,0.84-9.87,0.84l4.77,53.73c0,0,3.85,0.84,11.43,0.84c7.37,0,14.23-0.72,14.23-0.72l21.33-42.56l4.67,2.21
			L231.72,21.6L231.72,21.6z"/>
		<path class="st0" d="M72.61,46.52c1.86-8.98,0.82-18.68-11.97-18.68c-5.06,0-8.98,1.66-13.31,4.86L52.7,7.62
			c0,0-3.71-0.82-10.52-0.82c-6.91,0-10.72,0.82-10.72,0.82l-16.1,75.72c0,0,3.61,0.82,10.42,0.82s10.83-0.82,10.83-0.82l8.16-38.49
			c1.54-0.82,2.69-1.13,3.71-1.13c2.48,0,3.3,1.33,2.69,3.92l-7.53,35.7c0,0,3.4,0.82,10.42,0.82c7.12,0,10.83-0.82,10.83-0.82
			L72.61,46.52L72.61,46.52z"/>
	</g>
	<g>
		<path class="st1" d="M13.37,104.06c0,0.79,0.22,1.39,0.65,1.81c0.43,0.43,0.96,0.65,1.59,0.65c1.08,0,2.17-0.15,3.28-0.48
			l0.53-0.15v0.72c-1.27,0.44-2.53,0.67-3.78,0.67c-0.94,0-1.69-0.27-2.24-0.8c-0.56-0.53-0.84-1.28-0.84-2.26
			c0-0.97,0.12-1.93,0.36-2.87c0.24-0.96,0.6-1.85,1.06-2.67c0.46-0.82,1.08-1.51,1.85-2.02c0.77-0.51,1.64-0.77,2.6-0.77
			c1.9,0,2.86,0.75,2.86,2.27c0,1.25-0.51,2.14-1.52,2.65s-2.58,0.79-4.69,0.79h-1.37C13.49,102.45,13.37,103.29,13.37,104.06z
			 M15.29,100.88c1.81,0,3.13-0.19,3.97-0.58c0.84-0.39,1.25-1.11,1.25-2.14c0-1.04-0.7-1.56-2.09-1.56c-2.14,0-3.66,1.44-4.55,4.29
			h1.42V100.88z"/>
		<path class="st1" d="M35.64,96.88c-1.3-0.19-2.43-0.29-3.39-0.29c-0.96,0-1.73,0.27-2.33,0.84c-0.6,0.56-0.91,1.23-0.91,2
			c0,0.44,0.15,0.77,0.46,0.97c0.31,0.21,0.97,0.43,2.02,0.67c1.03,0.22,1.78,0.5,2.24,0.79c0.46,0.31,0.68,0.8,0.68,1.52
			c0,1.25-0.44,2.21-1.33,2.89c-0.89,0.67-2,1.01-3.34,1.01c-0.84,0-1.76-0.09-2.77-0.27l-0.51-0.09l0.15-0.7
			c1.32,0.24,2.46,0.36,3.4,0.36c0.94,0,1.8-0.26,2.51-0.77c0.72-0.51,1.08-1.27,1.08-2.27c0-0.56-0.17-0.94-0.51-1.15
			c-0.34-0.21-1.03-0.43-2.05-0.65c-1.03-0.22-1.74-0.48-2.17-0.77s-0.63-0.75-0.63-1.42c0-1.04,0.39-1.92,1.16-2.62
			c0.77-0.7,1.78-1.06,3.01-1.06c0.8,0,1.76,0.09,2.86,0.24l0.55,0.07L35.64,96.88z"/>
		<path class="st1" d="M47.62,95.88c0.7,0,1.39,0.07,2.05,0.17l0.36,0.07l-0.21,0.68c-0.84-0.15-1.57-0.22-2.21-0.22
			c-1.09,0-2.04,0.38-2.82,1.13c-1.45,1.42-2.17,3.57-2.17,6.47c0,0.79,0.21,1.39,0.63,1.8c0.41,0.41,1.09,0.6,2.04,0.6
			c0.55,0,1.23-0.1,2.09-0.31l0.44-0.1v0.7c-0.97,0.27-1.88,0.43-2.7,0.43c-2.21,0-3.3-1.01-3.3-3.04c0-3.2,0.86-5.58,2.55-7.12
			C45.27,96.29,46.35,95.88,47.62,95.88z"/>
		<path class="st1" d="M60.89,95.88c2.31,0,3.47,1.15,3.47,3.46c0,2.26-0.51,4.14-1.56,5.66s-2.39,2.27-4.05,2.27
			c-2.24,0-3.37-1.08-3.37-3.25c0-2.29,0.53-4.22,1.59-5.78C58.03,96.67,59.33,95.88,60.89,95.88z M58.75,106.57
			c1.42,0,2.58-0.7,3.47-2.1c0.89-1.4,1.33-3.11,1.33-5.13c0-0.84-0.22-1.51-0.67-2c-0.44-0.5-1.11-0.75-2.02-0.75
			c-1.37,0-2.5,0.74-3.39,2.19c-0.89,1.45-1.33,3.22-1.33,5.25C56.19,105.72,57.04,106.57,58.75,106.57z"/>
		<path class="st1" d="M70.74,107.09l3.71-16.06h0.77l-3.71,16.06H70.74z"/>
		<path class="st1" d="M82.94,107.28c-1.76,0-2.63-0.92-2.63-2.79c0-1.28,0.21-2.58,0.62-3.87s1.04-2.39,1.92-3.34
			s1.85-1.4,2.98-1.4c0.75,0,1.81,0.1,3.16,0.32l0.68,0.1l-1.68,7.17c-0.15,0.67-0.34,1.66-0.55,2.98l-0.09,0.6l-0.72,0.05
			c0.26-1.52,0.41-2.46,0.48-2.79c-0.05,0.07-0.14,0.19-0.24,0.32c-0.1,0.14-0.31,0.38-0.63,0.72c-0.32,0.34-0.63,0.63-0.94,0.91
			s-0.68,0.5-1.13,0.72C83.72,107.17,83.31,107.28,82.94,107.28z M88.75,96.91c-1.08-0.22-2.07-0.32-3.01-0.32
			c-0.92,0-1.76,0.44-2.51,1.33c-0.74,0.89-1.28,1.92-1.62,3.1c-0.34,1.18-0.51,2.33-0.51,3.47c0,0.68,0.15,1.21,0.46,1.56
			c0.31,0.34,0.82,0.51,1.52,0.51c0.79,0,1.86-0.75,3.23-2.24c0.31-0.34,0.55-0.63,0.72-0.87l0.26-0.36L88.75,96.91z"/>
		<path class="st1" d="M108.12,107.28c-1.68,0-2.51-0.92-2.51-2.77c0-1.32,0.21-2.63,0.63-3.92c0.43-1.28,1.06-2.39,1.92-3.32
			s1.83-1.39,2.91-1.39c0.92,0,1.83,0.09,2.7,0.26l0.44,0.09l1.21-5.22h0.77l-3.71,16.06h-0.75l0.56-2.51
			c-0.05,0.07-0.14,0.17-0.24,0.29s-0.29,0.34-0.6,0.65c-0.31,0.31-0.62,0.58-0.92,0.82c-0.31,0.24-0.68,0.44-1.13,0.65
			C108.95,107.17,108.53,107.28,108.12,107.28z M114.05,96.91c-1.03-0.22-2.02-0.32-2.98-0.32c-0.96,0-1.8,0.44-2.55,1.33
			c-0.74,0.89-1.28,1.92-1.62,3.1c-0.34,1.18-0.51,2.34-0.51,3.49c0,1.39,0.63,2.07,1.92,2.07c0.36,0,0.74-0.12,1.16-0.34
			s0.82-0.5,1.16-0.82c0.72-0.67,1.27-1.25,1.64-1.76l0.26-0.36L114.05,96.91z"/>
		<path class="st1" d="M121.97,104.06c0,0.79,0.22,1.39,0.65,1.81c0.43,0.43,0.96,0.65,1.59,0.65c1.08,0,2.17-0.15,3.28-0.48
			l0.53-0.15v0.72c-1.27,0.44-2.53,0.67-3.78,0.67c-0.94,0-1.69-0.27-2.24-0.8c-0.56-0.53-0.84-1.28-0.84-2.26
			c0-0.97,0.12-1.93,0.36-2.87c0.24-0.96,0.6-1.85,1.06-2.67c0.46-0.82,1.08-1.51,1.85-2.02c0.77-0.51,1.64-0.77,2.6-0.77
			c1.9,0,2.86,0.75,2.86,2.27c0,1.25-0.51,2.14-1.52,2.65c-1.01,0.51-2.58,0.79-4.69,0.79h-1.39
			C122.09,102.45,121.97,103.29,121.97,104.06z M123.89,100.88c1.81,0,3.13-0.19,3.97-0.58c0.84-0.39,1.25-1.11,1.25-2.14
			c0-1.04-0.7-1.56-2.09-1.56c-2.14,0-3.66,1.44-4.55,4.29h1.42V100.88z"/>
		<path class="st1" d="M147.17,105.27c0,0.87,0.46,1.3,1.4,1.3l1.85-0.15l-0.05,0.68c-0.75,0.12-1.39,0.17-1.92,0.17
			c-1.4,0-2.1-0.63-2.1-1.9c0-0.55,0.12-1.32,0.38-2.31l1.47-6.29h-1.61l0.17-0.7h1.62l0.86-3.56h0.77l-0.87,3.56h3.59l-0.17,0.7
			h-3.57l-1.47,6.29C147.29,104.01,147.17,104.74,147.17,105.27z"/>
		<path class="st1" d="M158.3,104.06c0,0.79,0.22,1.39,0.65,1.81c0.43,0.43,0.96,0.65,1.59,0.65c1.08,0,2.17-0.15,3.28-0.48
			l0.53-0.15v0.72c-1.27,0.44-2.51,0.67-3.78,0.67c-0.94,0-1.69-0.27-2.24-0.8c-0.56-0.53-0.84-1.28-0.84-2.26
			c0-0.97,0.12-1.93,0.36-2.87c0.24-0.94,0.6-1.85,1.06-2.67c0.46-0.82,1.08-1.51,1.85-2.02c0.77-0.51,1.64-0.77,2.6-0.77
			c1.92,0,2.86,0.75,2.86,2.27c0,1.25-0.51,2.14-1.52,2.65c-1.01,0.51-2.57,0.79-4.69,0.79h-1.39
			C158.42,102.45,158.3,103.29,158.3,104.06z M160.22,100.88c1.81,0,3.13-0.19,3.97-0.58c0.84-0.39,1.25-1.11,1.25-2.14
			c0-1.04-0.7-1.56-2.09-1.56c-2.14,0-3.66,1.44-4.55,4.29h1.42V100.88z"/>
		<path class="st1" d="M178.23,95.88c0.7,0,1.39,0.07,2.05,0.17l0.36,0.07l-0.21,0.68c-0.84-0.15-1.57-0.22-2.21-0.22
			c-1.09,0-2.04,0.38-2.82,1.13c-1.45,1.42-2.17,3.57-2.17,6.47c0,0.79,0.21,1.39,0.63,1.8c0.41,0.41,1.09,0.6,2.04,0.6
			c0.55,0,1.23-0.1,2.09-0.31l0.44-0.1v0.7c-0.99,0.27-1.88,0.43-2.7,0.43c-2.21,0-3.3-1.01-3.3-3.04c0-3.2,0.86-5.58,2.55-7.12
			C175.87,96.29,176.96,95.88,178.23,95.88z"/>
		<path class="st1" d="M188.39,98.57c1.44-1.8,2.79-2.69,4.07-2.69c0.79,0,1.42,0.22,1.86,0.68c0.44,0.46,0.67,1.06,0.67,1.81
			c0,0.75-0.14,1.74-0.43,2.98l-1.33,5.71h-0.75l1.32-5.68c0.27-1.15,0.43-2.07,0.43-2.77c0-1.35-0.63-2.02-1.9-2.02
			c-0.36,0-0.77,0.1-1.2,0.32c-0.43,0.22-0.82,0.5-1.16,0.82c-0.72,0.67-1.27,1.23-1.62,1.74l-0.24,0.32l-1.69,7.27h-0.77l2.55-11
			h0.77L188.39,98.57z"/>
		<path class="st1" d="M207.38,95.88c2.31,0,3.47,1.15,3.47,3.46c0,2.26-0.51,4.14-1.56,5.66s-2.39,2.27-4.05,2.27
			c-2.24,0-3.37-1.08-3.37-3.25c0-2.29,0.53-4.22,1.59-5.78C204.52,96.67,205.82,95.88,207.38,95.88z M205.25,106.57
			c1.42,0,2.58-0.7,3.47-2.1c0.89-1.4,1.35-3.11,1.35-5.13c0-0.84-0.22-1.51-0.67-2c-0.44-0.5-1.11-0.75-2.02-0.75
			c-1.37,0-2.5,0.74-3.37,2.19c-0.89,1.45-1.33,3.22-1.33,5.25C202.67,105.72,203.53,106.57,205.25,106.57z"/>
		<path class="st1" d="M217.25,107.09l3.71-16.06h0.77l-3.71,16.06H217.25z"/>
		<path class="st1" d="M232.38,95.88c2.31,0,3.47,1.15,3.47,3.46c0,2.26-0.51,4.14-1.56,5.66c-1.04,1.52-2.39,2.27-4.05,2.27
			c-2.24,0-3.37-1.08-3.37-3.25c0-2.29,0.53-4.22,1.59-5.78C229.53,96.67,230.83,95.88,232.38,95.88z M230.24,106.57
			c1.42,0,2.58-0.7,3.47-2.1c0.89-1.4,1.35-3.11,1.35-5.13c0-0.84-0.22-1.51-0.67-2c-0.44-0.5-1.11-0.75-2.02-0.75
			c-1.37,0-2.5,0.74-3.37,2.19c-0.89,1.45-1.33,3.22-1.33,5.25C227.68,105.72,228.53,106.57,230.24,106.57z"/>
		<path class="st1" d="M247.73,95.88c0.72,0,1.3,0.1,1.74,0.32l3.28-0.14l-0.17,0.77h-2.43c0.36,0.46,0.55,0.99,0.55,1.59
			c0,0.6-0.09,1.15-0.26,1.64c-0.17,0.51-0.44,0.99-0.79,1.47c-0.36,0.46-0.84,0.86-1.47,1.16c-0.63,0.31-1.35,0.44-2.14,0.44
			l-0.56-0.05c-0.6,0.77-0.91,1.4-0.91,1.9c0,0.29,0.14,0.5,0.41,0.62c0.27,0.12,0.94,0.24,2,0.36c1.06,0.12,1.83,0.36,2.33,0.74
			c0.5,0.38,0.72,0.94,0.72,1.73c0,1.03-0.51,1.93-1.56,2.72c-1.04,0.79-2.39,1.18-4.07,1.18c-1.03,0-1.85-0.26-2.45-0.79
			c-0.62-0.53-0.91-1.2-0.91-2c0-1.32,1.03-2.53,3.06-3.63c-0.19-0.15-0.29-0.41-0.29-0.75c0-0.34,0.1-0.68,0.29-1.04
			c0.19-0.36,0.38-0.65,0.55-0.87l0.29-0.31c-1.03-0.41-1.54-1.27-1.54-2.55c0-1.08,0.39-2.1,1.18-3.06
			C245.33,96.36,246.39,95.88,247.73,95.88z M242.65,107.72c-0.55,0.55-0.82,1.13-0.82,1.74c0,0.63,0.24,1.15,0.7,1.56
			c0.46,0.41,1.15,0.62,2.02,0.62c1.28,0,2.38-0.31,3.28-0.91c0.91-0.62,1.37-1.37,1.37-2.27c0-0.56-0.19-0.97-0.56-1.21
			c-0.38-0.24-1.04-0.41-1.98-0.51c-0.94-0.1-1.62-0.22-2-0.39C243.86,106.71,243.19,107.17,242.65,107.72z M246.2,102.45
			c0.63,0,1.2-0.12,1.69-0.38c0.5-0.26,0.89-0.58,1.16-0.97c0.56-0.77,0.84-1.52,0.84-2.27s-0.17-1.32-0.51-1.68
			c-0.34-0.36-0.92-0.55-1.74-0.55c-1.06,0-1.9,0.41-2.53,1.23c-0.63,0.82-0.94,1.66-0.94,2.53
			C244.15,101.75,244.84,102.45,246.2,102.45z"/>
		<path class="st1" d="M257.1,107.09l2.55-11h0.77l-2.55,11H257.1z M260.33,93.04l0.31-1.32h0.79l-0.31,1.32H260.33z"/>
		<path class="st1" d="M269.16,107.28c-1.76,0-2.63-0.92-2.63-2.79c0-1.28,0.21-2.58,0.62-3.87s1.04-2.39,1.92-3.34
			c0.87-0.92,1.85-1.4,2.98-1.4c0.75,0,1.8,0.1,3.16,0.32l0.68,0.1l-1.68,7.17c-0.15,0.67-0.34,1.66-0.55,2.98l-0.09,0.6l-0.72,0.05
			c0.26-1.52,0.41-2.46,0.48-2.79c-0.05,0.07-0.14,0.19-0.24,0.32c-0.1,0.14-0.31,0.38-0.63,0.72c-0.32,0.34-0.63,0.63-0.94,0.91
			c-0.31,0.26-0.68,0.5-1.13,0.72C269.95,107.17,269.53,107.28,269.16,107.28z M274.96,96.91c-1.08-0.22-2.07-0.32-3.01-0.32
			c-0.94,0-1.76,0.44-2.51,1.33c-0.74,0.89-1.28,1.92-1.62,3.1c-0.34,1.18-0.51,2.33-0.51,3.47c0,0.68,0.15,1.21,0.46,1.56
			c0.31,0.34,0.82,0.51,1.52,0.51c0.79,0,1.86-0.75,3.23-2.24c0.31-0.34,0.55-0.63,0.72-0.87l0.26-0.36L274.96,96.91z"/>
	</g>
</g>
</svg>
